<?xml version="1.0" standalone="no"?>
<!DOCTYPE svg PUBLIC "-//W3C//DTD SVG 20010904//EN"
 "http://www.w3.org/TR/2001/REC-SVG-20010904/DTD/svg10.dtd">
<svg version="1.0" xmlns="http://www.w3.org/2000/svg"
 width="1000.000000pt" height="1000.000000pt" viewBox="0 0 1000.000000 1000.000000"
 preserveAspectRatio="xMidYMid meet">
<metadata>
Created by potrace 1.11, written by Peter Selinger 2001-2013
</metadata>
<g transform="translate(0.000000,1000.000000) scale(0.100000,-0.100000)"
fill="#000000" stroke="none">
<path d="M4657 9434 c-1 -1 -40 -4 -87 -8 -47 -3 -100 -10 -117 -15 -18 -5
-33 -7 -33 -4 0 3 -7 0 -15 -7 -8 -7 -15 -10 -15 -6 0 12 -168 -56 -245 -100
-136 -78 -205 -145 -375 -359 -98 -123 -288 -318 -810 -830 -106 -104 -229
-230 -273 -280 -44 -49 -110 -124 -146 -165 -222 -250 -306 -338 -1054 -1100
-588 -599 -866 -952 -1060 -1350 -106 -218 -151 -376 -143 -505 9 -140 51
-210 171 -280 13 -8 15 -15 6 -38 -26 -66 -30 -175 -11 -247 24 -91 108 -214
200 -295 19 -16 43 -39 54 -49 107 -105 527 -316 698 -350 124 -25 145 -27
348 -42 97 -7 106 -8 241 -30 14 -2 118 -25 230 -50 112 -25 233 -53 269 -61
36 -8 72 -16 81 -18 44 -9 95 -27 221 -73 75 -28 149 -54 165 -57 115 -23 213
-13 302 32 153 79 246 240 206 357 -12 35 -12 38 26 84 95 114 84 263 -31 435
l-48 71 37 38 c84 83 82 228 -4 363 -43 68 -105 121 -184 159 -62 29 -73 31
-176 31 -95 0 -116 -3 -157 -23 l-48 -24 -42 37 c-54 45 -141 87 -237 114
-101 28 -270 24 -351 -7 -63 -25 -77 -19 -86 39 -5 32 -1 39 63 104 165 169
316 351 372 448 54 94 70 160 67 267 -1 52 -4 101 -7 108 -3 9 20 13 91 15 83
2 100 6 135 28 95 63 131 139 139 296 3 72 24 112 95 187 52 53 186 170 256
223 116 86 405 309 475 366 146 119 217 185 444 410 121 119 223 217 226 217
6 0 15 -43 36 -170 2 -14 7 -45 10 -70 24 -181 84 -347 240 -664 8 -16 14 -33
14 -37 0 -5 11 -32 24 -61 48 -104 144 -379 216 -618 18 -58 36 -116 41 -130
4 -14 45 -158 89 -320 164 -592 211 -705 375 -905 106 -128 151 -239 179 -440
19 -134 28 -167 60 -216 47 -70 119 -109 203 -109 53 0 130 18 159 37 20 12
22 12 28 -9 3 -13 19 -38 36 -57 16 -18 30 -37 30 -40 0 -4 -18 -25 -41 -46
-23 -22 -64 -74 -92 -115 -43 -64 -106 -134 -159 -176 -7 -6 -54 -34 -103 -63
-50 -30 -106 -66 -127 -82 -41 -33 -99 -116 -118 -171 l-13 -36 -71 57 c-164
135 -188 184 -156 324 24 107 -2 229 -67 314 -18 24 -102 89 -141 109 -3 2 -7
41 -16 160 -8 100 -22 158 -73 303 -25 69 -71 206 -104 305 -141 429 -304 706
-461 787 -49 26 -130 33 -184 16 -83 -25 -178 -150 -200 -262 -5 -22 -9 -43
-10 -47 -1 -5 -2 -18 -3 -30 -1 -22 -4 -23 -104 -23 -94 0 -108 -3 -170 -32
-156 -74 -229 -209 -222 -411 4 -103 26 -173 84 -264 37 -58 92 -170 90 -183
0 -3 2 -24 6 -48 8 -53 12 -79 20 -142 10 -85 82 -347 114 -420 5 -11 40 -101
76 -200 37 -99 78 -207 90 -240 71 -189 217 -590 285 -787 121 -347 151 -413
246 -538 145 -191 356 -363 536 -437 192 -78 349 -95 559 -58 126 22 323 123
494 253 238 181 427 359 535 504 56 74 207 310 219 343 2 5 7 12 10 15 3 3 19
25 36 49 61 90 211 222 400 351 147 101 238 184 290 265 51 81 60 112 60 213
l0 92 33 1 c17 1 35 2 40 3 4 1 23 6 42 10 68 16 136 60 210 135 89 90 122
144 269 440 208 420 318 550 656 780 286 194 416 352 521 628 30 80 80 276 89
348 3 28 8 66 10 85 6 39 5 239 0 285 -15 119 -46 235 -93 334 -117 252 -354
456 -716 615 -135 60 -261 70 -376 31 -36 -12 -76 -29 -87 -36 -19 -12 -26 -9
-65 27 -61 57 -120 77 -206 72 -59 -3 -78 -9 -131 -42 l-63 -38 -20 22 c-27
29 -99 60 -146 64 -77 5 -142 -27 -191 -94 -23 -33 -30 -36 -51 -28 -14 6 -55
8 -92 5 -74 -5 -124 -30 -183 -93 -33 -35 -65 -50 -118 -59 -111 -18 -170 -55
-205 -128 -11 -24 -26 -44 -34 -44 -29 0 -89 -37 -123 -75 -64 -74 -83 -219
-42 -318 88 -207 351 -280 496 -138 38 38 66 88 81 151 10 36 17 46 37 50 21
4 24 2 19 -17 -29 -98 -9 -199 49 -259 42 -43 84 -66 180 -97 83 -27 187 -77
248 -119 99 -68 208 -203 223 -277 6 -29 0 -37 -71 -105 -81 -77 -210 -222
-311 -349 -32 -41 -67 -84 -76 -95 -9 -11 -62 -76 -118 -145 -56 -69 -140
-167 -188 -219 l-86 -93 -35 40 c-50 55 -89 79 -158 97 -132 34 -259 -7 -323
-104 l-15 -22 -2 30 c-2 33 -35 108 -70 160 -13 19 -23 37 -23 42 0 4 25 -4
56 -18 147 -67 283 -17 330 121 32 96 18 211 -37 301 -26 42 -29 53 -19 69 16
26 21 114 8 168 -25 113 -121 260 -217 333 -50 38 -50 39 -33 59 53 60 75 180
52 285 -16 74 -73 193 -157 325 -37 59 -90 142 -117 184 -72 113 -105 191
-148 347 -52 189 -51 188 -103 370 -25 88 -50 171 -56 185 -5 14 -11 34 -13
45 -11 52 -230 719 -286 870 -50 133 -82 201 -154 320 -245 410 -559 640 -919
673 -48 4 -89 7 -90 6z m2013 -5092 l21 -54 -23 -34 c-23 -33 -42 -42 -52 -25
-5 8 -65 27 -115 36 -13 2 -25 6 -27 7 -1 2 21 19 50 37 31 20 65 53 81 79 25
39 30 42 36 26 4 -10 17 -43 29 -72z"/>
</g>
</svg>
